<?xml version="1.0" encoding="utf-8"?>
<!-- Generator: Adobe Illustrator 18.0.0, SVG Export Plug-In . SVG Version: 6.00 Build 0)  -->
<!DOCTYPE svg PUBLIC "-//W3C//DTD SVG 1.1//EN" "http://www.w3.org/Graphics/SVG/1.1/DTD/svg11.dtd">
<svg version="1.1" id="Layer_1" xmlns="http://www.w3.org/2000/svg" xmlns:xlink="http://www.w3.org/1999/xlink" x="0px" y="0px"
	 viewBox="0 0 1190.6 841.9" enable-background="new 0 0 1190.6 841.9" xml:space="preserve">
<path fill="none" stroke="#000000" stroke-miterlimit="10" d="M1045.8,635.7c-3.2,9.8-28.5,44.5-66,32.1
	c-37.6-12.3-174.8-94.1-242.3-111.9c0.7,0.2-170.7-8.8-237.6-4.8c-98.5,3.7-182.1,88.7-182.5,88.3c-297.8-244.2-8.2-432.2-8.2-432.2
	s36.1,18,62.6,89.2c57.2,51.8,40.5,17.1,173.5,78.4c36.9,17,90.2,70.3,109.6,72.9c79.9,3.2,87.8-23.6,142.8-2
	c42.7,21,185.7,94.4,218.6,112.9C1060.1,583.3,1049,625.8,1045.8,635.7z"/>
<g>
	<path fill="none" stroke="#000000" stroke-miterlimit="10" d="M216.6,463.9l10.1,31.1c1.1,3.3,4.7,5.1,8,4.1l0,0
		c3.3-1.1,5.1-4.7,4.1-8L228.6,460c-1.1-3.3-4.7-5.1-8-4.1l0,0C217.3,457,215.5,460.6,216.6,463.9z"/>
	<polygon fill="none" stroke="#000000" stroke-miterlimit="10" points="264.5,490.3 250.6,447.5 287,421 323.4,447.5 309.5,490.3 	
		"/>
	<path fill="none" stroke="#000000" stroke-miterlimit="10" d="M260.9,393.8L234.4,413c-2.8,2-3.4,6-1.4,8.8l0,0
		c2,2.8,6,3.4,8.8,1.4l26.5-19.2c2.8-2,3.4-6,1.4-8.8l0,0C267.7,392.3,263.7,391.7,260.9,393.8z"/>
	<path fill="none" stroke="#000000" stroke-miterlimit="10" d="M341.3,414.2L314.8,395c-2.8-2-6.8-1.4-8.8,1.4l0,0
		c-2,2.8-1.4,6.8,1.4,8.8l26.5,19.2c2.8,2,6.8,1.4,8.8-1.4l0,0C344.7,420.2,344.1,416.2,341.3,414.2z"/>
	<path fill="none" stroke="#000000" stroke-miterlimit="10" d="M354.6,395.9l-26.5-19.2c-2.8-2-6.8-1.4-8.8,1.4l0,0
		c-2,2.8-1.4,6.8,1.4,8.8l26.5,19.2c2.8,2,6.8,1.4,8.8-1.4l0,0C358.1,401.9,357.4,397.9,354.6,395.9z"/>
	<path fill="none" stroke="#000000" stroke-miterlimit="10" d="M247.6,375.4l-26.5,19.2c-2.8,2-3.4,6-1.4,8.8l0,0
		c2,2.8,6,3.4,8.8,1.4l26.5-19.2c2.8-2,3.4-6,1.4-8.8l0,0C254.3,374,250.4,373.4,247.6,375.4z"/>
	<path fill="none" stroke="#000000" stroke-miterlimit="10" d="M269.6,527.7h32.7c3.5,0,6.3-2.8,6.3-6.3l0,0c0-3.5-2.8-6.3-6.3-6.3
		h-32.7c-3.5,0-6.3,2.8-6.3,6.3l0,0C263.3,524.9,266.2,527.7,269.6,527.7z"/>
	<path fill="none" stroke="#000000" stroke-miterlimit="10" d="M269.6,550.4h32.7c3.5,0,6.3-2.8,6.3-6.3l0,0c0-3.5-2.8-6.3-6.3-6.3
		h-32.7c-3.5,0-6.3,2.8-6.3,6.3l0,0C263.3,547.5,266.2,550.4,269.6,550.4z"/>
	<path fill="none" stroke="#000000" stroke-miterlimit="10" d="M346.7,497l10.1-31.1c1.1-3.3-0.8-6.9-4.1-8l0,0
		c-3.3-1.1-6.9,0.8-8,4.1l-10.1,31.1c-1.1,3.3,0.8,6.9,4.1,8l0,0C342,502.1,345.6,500.3,346.7,497z"/>
	<path fill="none" stroke="#000000" stroke-miterlimit="10" d="M368.3,504l10.1-31.1c1.1-3.3-0.8-6.9-4.1-8l0,0
		c-3.3-1.1-6.9,0.8-8,4.1l-10.1,31.1c-1.1,3.3,0.8,6.9,4.1,8l0,0C363.6,509.1,367.2,507.3,368.3,504z"/>
	<circle fill="none" stroke="#000000" stroke-miterlimit="10" cx="214" cy="435.3" r="6.3"/>
	<circle fill="none" stroke="#000000" stroke-miterlimit="10" cx="241.6" cy="521.3" r="6.3"/>
	<circle fill="none" stroke="#000000" stroke-miterlimit="10" cx="331.9" cy="521.7" r="6.3"/>
	<circle fill="none" stroke="#000000" stroke-miterlimit="10" cx="360.2" cy="435.9" r="6.3"/>
	<circle fill="none" stroke="#000000" stroke-miterlimit="10" cx="287.3" cy="382.5" r="6.3"/>
	<circle fill="none" stroke="#000000" stroke-miterlimit="10" cx="222" cy="365.8" r="6.3"/>
	<circle fill="none" stroke="#000000" stroke-miterlimit="10" cx="265.7" cy="347.5" r="6.3"/>
	<circle fill="none" stroke="#000000" stroke-miterlimit="10" cx="313" cy="348.5" r="6.3"/>
	<circle fill="none" stroke="#000000" stroke-miterlimit="10" cx="355.8" cy="368.6" r="6.3"/>
	<circle fill="none" stroke="#000000" stroke-miterlimit="10" cx="386.8" cy="404.5" r="6.3"/>
	<circle fill="none" stroke="#000000" stroke-miterlimit="10" cx="400.5" cy="449.8" r="6.3"/>
	<circle fill="none" stroke="#000000" stroke-miterlimit="10" cx="394.5" cy="496.7" r="6.3"/>
	<circle fill="none" stroke="#000000" stroke-miterlimit="10" cx="370" cy="537.2" r="6.3"/>
	<circle fill="none" stroke="#000000" stroke-miterlimit="10" cx="331.1" cy="564.3" r="6.3"/>
	<circle fill="none" stroke="#000000" stroke-miterlimit="10" cx="284.6" cy="573.1" r="6.3"/>
</g>
<circle id="mask-anchor" fill="none" cx="182.9" cy="407.3" r="1.4"/>
</svg>
